<svg width="212" height="67" viewBox="0 0 212 67" fill="none" xmlns="http://www.w3.org/2000/svg">
<path d="M1.5 3C2.32843 3 3 2.32843 3 1.5C3 0.671573 2.32843 0 1.5 0C0.671573 0 0 0.671573 0 1.5C0 2.32843 0.671573 3 1.5 3Z" fill="white"/>
<path d="M20.5 3C21.3284 3 22 2.32843 22 1.5C22 0.671573 21.3284 0 20.5 0C19.6716 0 19 0.671573 19 1.5C19 2.32843 19.6716 3 20.5 3Z" fill="white"/>
<path d="M39.5 3C40.3284 3 41 2.32843 41 1.5C41 0.671573 40.3284 0 39.5 0C38.6716 0 38 0.671573 38 1.5C38 2.32843 38.6716 3 39.5 3Z" fill="white"/>
<path d="M58.5 3C59.3284 3 60 2.32843 60 1.5C60 0.671573 59.3284 0 58.5 0C57.6716 0 57 0.671573 57 1.5C57 2.32843 57.6716 3 58.5 3Z" fill="white"/>
<path d="M77.5 3C78.3284 3 79 2.32843 79 1.5C79 0.671573 78.3284 0 77.5 0C76.6716 0 76 0.671573 76 1.5C76 2.32843 76.6716 3 77.5 3Z" fill="white"/>
<path d="M96.5 3C97.3284 3 98 2.32843 98 1.5C98 0.671573 97.3284 0 96.5 0C95.6716 0 95 0.671573 95 1.5C95 2.32843 95.6716 3 96.5 3Z" fill="white"/>
<path d="M115.5 3C116.328 3 117 2.32843 117 1.5C117 0.671573 116.328 0 115.5 0C114.672 0 114 0.671573 114 1.5C114 2.32843 114.672 3 115.5 3Z" fill="white"/>
<path d="M134.5 3C135.328 3 136 2.32843 136 1.5C136 0.671573 135.328 0 134.5 0C133.672 0 133 0.671573 133 1.5C133 2.32843 133.672 3 134.5 3Z" fill="white"/>
<path d="M153.5 3C154.328 3 155 2.32843 155 1.5C155 0.671573 154.328 0 153.5 0C152.672 0 152 0.671573 152 1.5C152 2.32843 152.672 3 153.5 3Z" fill="white"/>
<path d="M172.5 3C173.328 3 174 2.32843 174 1.5C174 0.671573 173.328 0 172.5 0C171.672 0 171 0.671573 171 1.5C171 2.32843 171.672 3 172.5 3Z" fill="white"/>
<path d="M191.5 3C192.328 3 193 2.32843 193 1.5C193 0.671573 192.328 0 191.5 0C190.672 0 190 0.671573 190 1.5C190 2.32843 190.672 3 191.5 3Z" fill="white"/>
<path d="M210.5 3C211.328 3 212 2.32843 212 1.5C212 0.671573 211.328 0 210.5 0C209.672 0 209 0.671573 209 1.5C209 2.32843 209.672 3 210.5 3Z" fill="white"/>
<path d="M1.5 19C2.32843 19 3 18.3284 3 17.5C3 16.6716 2.32843 16 1.5 16C0.671573 16 0 16.6716 0 17.5C0 18.3284 0.671573 19 1.5 19Z" fill="white"/>
<path d="M20.5 19C21.3284 19 22 18.3284 22 17.5C22 16.6716 21.3284 16 20.5 16C19.6716 16 19 16.6716 19 17.5C19 18.3284 19.6716 19 20.5 19Z" fill="white"/>
<path d="M39.5 19C40.3284 19 41 18.3284 41 17.5C41 16.6716 40.3284 16 39.5 16C38.6716 16 38 16.6716 38 17.5C38 18.3284 38.6716 19 39.5 19Z" fill="white"/>
<path d="M58.5 19C59.3284 19 60 18.3284 60 17.5C60 16.6716 59.3284 16 58.5 16C57.6716 16 57 16.6716 57 17.5C57 18.3284 57.6716 19 58.5 19Z" fill="white"/>
<path d="M77.5 19C78.3284 19 79 18.3284 79 17.5C79 16.6716 78.3284 16 77.5 16C76.6716 16 76 16.6716 76 17.5C76 18.3284 76.6716 19 77.5 19Z" fill="white"/>
<path d="M96.5 19C97.3284 19 98 18.3284 98 17.5C98 16.6716 97.3284 16 96.5 16C95.6716 16 95 16.6716 95 17.5C95 18.3284 95.6716 19 96.5 19Z" fill="white"/>
<path d="M115.5 19C116.328 19 117 18.3284 117 17.5C117 16.6716 116.328 16 115.5 16C114.672 16 114 16.6716 114 17.5C114 18.3284 114.672 19 115.5 19Z" fill="white"/>
<path d="M134.5 19C135.328 19 136 18.3284 136 17.5C136 16.6716 135.328 16 134.5 16C133.672 16 133 16.6716 133 17.5C133 18.3284 133.672 19 134.5 19Z" fill="white"/>
<path d="M153.5 19C154.328 19 155 18.3284 155 17.5C155 16.6716 154.328 16 153.5 16C152.672 16 152 16.6716 152 17.5C152 18.3284 152.672 19 153.5 19Z" fill="white"/>
<path d="M172.5 19C173.328 19 174 18.3284 174 17.5C174 16.6716 173.328 16 172.5 16C171.672 16 171 16.6716 171 17.5C171 18.3284 171.672 19 172.5 19Z" fill="white"/>
<path d="M191.5 19C192.328 19 193 18.3284 193 17.5C193 16.6716 192.328 16 191.5 16C190.672 16 190 16.6716 190 17.5C190 18.3284 190.672 19 191.5 19Z" fill="white"/>
<path d="M210.5 19C211.328 19 212 18.3284 212 17.5C212 16.6716 211.328 16 210.5 16C209.672 16 209 16.6716 209 17.5C209 18.3284 209.672 19 210.5 19Z" fill="white"/>
<path d="M1.5 35C2.32843 35 3 34.3284 3 33.5C3 32.6716 2.32843 32 1.5 32C0.671573 32 0 32.6716 0 33.5C0 34.3284 0.671573 35 1.5 35Z" fill="white"/>
<path d="M20.5 35C21.3284 35 22 34.3284 22 33.5C22 32.6716 21.3284 32 20.5 32C19.6716 32 19 32.6716 19 33.5C19 34.3284 19.6716 35 20.5 35Z" fill="white"/>
<path d="M39.5 35C40.3284 35 41 34.3284 41 33.5C41 32.6716 40.3284 32 39.5 32C38.6716 32 38 32.6716 38 33.5C38 34.3284 38.6716 35 39.5 35Z" fill="white"/>
<path d="M58.5 35C59.3284 35 60 34.3284 60 33.5C60 32.6716 59.3284 32 58.5 32C57.6716 32 57 32.6716 57 33.5C57 34.3284 57.6716 35 58.5 35Z" fill="white"/>
<path d="M77.5 35C78.3284 35 79 34.3284 79 33.5C79 32.6716 78.3284 32 77.5 32C76.6716 32 76 32.6716 76 33.5C76 34.3284 76.6716 35 77.5 35Z" fill="white"/>
<path d="M96.5 35C97.3284 35 98 34.3284 98 33.5C98 32.6716 97.3284 32 96.5 32C95.6716 32 95 32.6716 95 33.5C95 34.3284 95.6716 35 96.5 35Z" fill="white"/>
<path d="M115.5 35C116.328 35 117 34.3284 117 33.5C117 32.6716 116.328 32 115.5 32C114.672 32 114 32.6716 114 33.5C114 34.3284 114.672 35 115.5 35Z" fill="white"/>
<path d="M134.5 35C135.328 35 136 34.3284 136 33.5C136 32.6716 135.328 32 134.5 32C133.672 32 133 32.6716 133 33.5C133 34.3284 133.672 35 134.5 35Z" fill="white"/>
<path d="M153.5 35C154.328 35 155 34.3284 155 33.5C155 32.6716 154.328 32 153.5 32C152.672 32 152 32.6716 152 33.5C152 34.3284 152.672 35 153.5 35Z" fill="white"/>
<path d="M172.5 35C173.328 35 174 34.3284 174 33.5C174 32.6716 173.328 32 172.5 32C171.672 32 171 32.6716 171 33.5C171 34.3284 171.672 35 172.5 35Z" fill="white"/>
<path d="M191.5 35C192.328 35 193 34.3284 193 33.5C193 32.6716 192.328 32 191.5 32C190.672 32 190 32.6716 190 33.5C190 34.3284 190.672 35 191.5 35Z" fill="white"/>
<path d="M210.5 35C211.328 35 212 34.3284 212 33.5C212 32.6716 211.328 32 210.5 32C209.672 32 209 32.6716 209 33.5C209 34.3284 209.672 35 210.5 35Z" fill="white"/>
<path d="M1.5 51C2.32843 51 3 50.3284 3 49.5C3 48.6716 2.32843 48 1.5 48C0.671573 48 0 48.6716 0 49.5C0 50.3284 0.671573 51 1.5 51Z" fill="white"/>
<path d="M20.5 51C21.3284 51 22 50.3284 22 49.5C22 48.6716 21.3284 48 20.5 48C19.6716 48 19 48.6716 19 49.5C19 50.3284 19.6716 51 20.5 51Z" fill="white"/>
<path d="M39.5 51C40.3284 51 41 50.3284 41 49.5C41 48.6716 40.3284 48 39.5 48C38.6716 48 38 48.6716 38 49.5C38 50.3284 38.6716 51 39.5 51Z" fill="white"/>
<path d="M58.5 51C59.3284 51 60 50.3284 60 49.5C60 48.6716 59.3284 48 58.5 48C57.6716 48 57 48.6716 57 49.5C57 50.3284 57.6716 51 58.5 51Z" fill="white"/>
<path d="M77.5 51C78.3284 51 79 50.3284 79 49.5C79 48.6716 78.3284 48 77.5 48C76.6716 48 76 48.6716 76 49.5C76 50.3284 76.6716 51 77.5 51Z" fill="white"/>
<path d="M96.5 51C97.3284 51 98 50.3284 98 49.5C98 48.6716 97.3284 48 96.5 48C95.6716 48 95 48.6716 95 49.5C95 50.3284 95.6716 51 96.5 51Z" fill="white"/>
<path d="M115.5 51C116.328 51 117 50.3284 117 49.5C117 48.6716 116.328 48 115.5 48C114.672 48 114 48.6716 114 49.5C114 50.3284 114.672 51 115.5 51Z" fill="white"/>
<path d="M134.5 51C135.328 51 136 50.3284 136 49.5C136 48.6716 135.328 48 134.5 48C133.672 48 133 48.6716 133 49.5C133 50.3284 133.672 51 134.5 51Z" fill="white"/>
<path d="M153.5 51C154.328 51 155 50.3284 155 49.5C155 48.6716 154.328 48 153.5 48C152.672 48 152 48.6716 152 49.5C152 50.3284 152.672 51 153.5 51Z" fill="white"/>
<path d="M172.5 51C173.328 51 174 50.3284 174 49.5C174 48.6716 173.328 48 172.5 48C171.672 48 171 48.6716 171 49.5C171 50.3284 171.672 51 172.5 51Z" fill="white"/>
<path d="M191.5 51C192.328 51 193 50.3284 193 49.5C193 48.6716 192.328 48 191.5 48C190.672 48 190 48.6716 190 49.5C190 50.3284 190.672 51 191.5 51Z" fill="white"/>
<path d="M210.5 51C211.328 51 212 50.3284 212 49.5C212 48.6716 211.328 48 210.5 48C209.672 48 209 48.6716 209 49.5C209 50.3284 209.672 51 210.5 51Z" fill="white"/>
<path d="M1.5 67C2.32843 67 3 66.3284 3 65.5C3 64.6716 2.32843 64 1.5 64C0.671573 64 0 64.6716 0 65.5C0 66.3284 0.671573 67 1.5 67Z" fill="white"/>
<path d="M20.5 67C21.3284 67 22 66.3284 22 65.5C22 64.6716 21.3284 64 20.5 64C19.6716 64 19 64.6716 19 65.5C19 66.3284 19.6716 67 20.5 67Z" fill="white"/>
<path d="M39.5 67C40.3284 67 41 66.3284 41 65.5C41 64.6716 40.3284 64 39.5 64C38.6716 64 38 64.6716 38 65.5C38 66.3284 38.6716 67 39.5 67Z" fill="white"/>
<path d="M58.5 67C59.3284 67 60 66.3284 60 65.5C60 64.6716 59.3284 64 58.5 64C57.6716 64 57 64.6716 57 65.5C57 66.3284 57.6716 67 58.5 67Z" fill="white"/>
<path d="M77.5 67C78.3284 67 79 66.3284 79 65.5C79 64.6716 78.3284 64 77.5 64C76.6716 64 76 64.6716 76 65.5C76 66.3284 76.6716 67 77.5 67Z" fill="white"/>
<path d="M96.5 67C97.3284 67 98 66.3284 98 65.5C98 64.6716 97.3284 64 96.5 64C95.6716 64 95 64.6716 95 65.5C95 66.3284 95.6716 67 96.5 67Z" fill="white"/>
<path d="M115.5 67C116.328 67 117 66.3284 117 65.5C117 64.6716 116.328 64 115.5 64C114.672 64 114 64.6716 114 65.5C114 66.3284 114.672 67 115.5 67Z" fill="white"/>
<path d="M134.5 67C135.328 67 136 66.3284 136 65.5C136 64.6716 135.328 64 134.5 64C133.672 64 133 64.6716 133 65.5C133 66.3284 133.672 67 134.5 67Z" fill="white"/>
<path d="M153.5 67C154.328 67 155 66.3284 155 65.5C155 64.6716 154.328 64 153.5 64C152.672 64 152 64.6716 152 65.5C152 66.3284 152.672 67 153.5 67Z" fill="white"/>
<path d="M172.5 67C173.328 67 174 66.3284 174 65.5C174 64.6716 173.328 64 172.5 64C171.672 64 171 64.6716 171 65.5C171 66.3284 171.672 67 172.5 67Z" fill="white"/>
<path d="M191.5 67C192.328 67 193 66.3284 193 65.5C193 64.6716 192.328 64 191.5 64C190.672 64 190 64.6716 190 65.5C190 66.3284 190.672 67 191.5 67Z" fill="white"/>
<path d="M210.5 67C211.328 67 212 66.3284 212 65.5C212 64.6716 211.328 64 210.5 64C209.672 64 209 64.6716 209 65.5C209 66.3284 209.672 67 210.5 67Z" fill="white"/>
</svg>
