<svg width="15" height="15" viewBox="0 0 15 15" fill="none" xmlns="http://www.w3.org/2000/svg">
<path d="M1.76301 3.51589C2.7367 3.51589 3.52603 2.72883 3.52603 1.75795C3.52603 0.78706 2.7367 0 1.76301 0C0.789328 0 0 0.78706 0 1.75795C0 2.72883 0.789328 3.51589 1.76301 3.51589Z" fill="white"/>
<path d="M5.19071 4.84797V14.601H8.22763V9.77793C8.22763 8.50527 8.46775 7.27278 10.0503 7.27278C11.611 7.27278 11.6304 8.72782 11.6304 9.85828V14.6018H14.6689V9.25328C14.6689 6.626 14.1017 4.60693 11.022 4.60693C9.54345 4.60693 8.55236 5.41601 8.14706 6.18169H8.10596V4.84797H5.19071ZM0.241699 4.84797H3.28346V14.601H0.241699V4.84797Z" fill="white"/>
</svg>
