<svg width="37" height="37" viewBox="0 0 37 37" fill="none" xmlns="http://www.w3.org/2000/svg">
<path d="M18.5 25.1614C17.1279 25.1614 15.7866 24.7615 14.6457 24.0123C13.5049 23.2631 12.6157 22.1982 12.0906 20.9522C11.5655 19.7063 11.4281 18.3353 11.6958 17.0126C11.9635 15.69 12.6242 14.475 13.5944 13.5214C14.5647 12.5678 15.8008 11.9184 17.1466 11.6553C18.4923 11.3922 19.8872 11.5272 21.1549 12.0433C22.4225 12.5594 23.506 13.4334 24.2683 14.5547C25.0306 15.676 25.4375 16.9943 25.4375 18.3429C25.4474 19.241 25.2747 20.132 24.9296 20.9637C24.5845 21.7954 24.0738 22.5509 23.4276 23.186C22.7814 23.8211 22.0127 24.323 21.1665 24.6622C20.3204 25.0015 19.4138 25.1712 18.5 25.1614ZM18.5 13.7972C17.8888 13.7835 17.2812 13.8917 16.7138 14.1153C16.1463 14.3389 15.6309 14.6733 15.1987 15.0981C14.7664 15.523 14.4262 16.0296 14.1987 16.5873C13.9712 17.1449 13.8611 17.7422 13.875 18.3429C13.8611 18.9436 13.9712 19.5408 14.1987 20.0985C14.4262 20.6562 14.7664 21.1628 15.1987 21.5876C15.6309 22.0125 16.1463 22.3468 16.7138 22.5704C17.2812 22.794 17.8888 22.9023 18.5 22.8886C19.1112 22.9023 19.7188 22.794 20.2862 22.5704C20.8537 22.3468 21.3691 22.0125 21.8013 21.5876C22.2336 21.1628 22.5738 20.6562 22.8013 20.0985C23.0288 19.5408 23.1389 18.9436 23.125 18.3429C23.1389 17.7422 23.0288 17.1449 22.8013 16.5873C22.5738 16.0296 22.2336 15.523 21.8013 15.0981C21.3691 14.6733 20.8537 14.3389 20.2862 14.1153C19.7188 13.8917 19.1112 13.7835 18.5 13.7972Z" fill="url(#paint0_linear_469_320)"/>
<path d="M33.8837 12.7107L31.1549 8.065C30.8878 7.6095 30.4681 7.25922 29.9675 7.07394C29.467 6.88865 28.9164 6.87985 28.41 7.04903L25.5957 7.98431C25.1107 7.66338 24.6038 7.37556 24.0787 7.1229L23.4971 4.26024C23.3923 3.7448 23.1089 3.28101 22.6953 2.94782C22.2817 2.61463 21.7633 2.43265 21.2285 2.43286H15.771C15.2362 2.43265 14.7179 2.61463 14.3042 2.94782C13.8906 3.28101 13.6073 3.7448 13.5025 4.26024L12.9209 7.1229C12.3898 7.37279 11.8771 7.65873 11.3865 7.97863L8.58839 7.04903C8.08223 6.88044 7.53226 6.88955 7.03216 7.0748C6.53207 7.26006 6.11279 7.60999 5.84576 8.065L3.11701 12.7107C2.8497 13.1656 2.75097 13.6975 2.83761 14.2159C2.92424 14.7342 3.1909 15.2071 3.59223 15.5541L5.82495 17.4826C5.8053 17.769 5.78101 18.0531 5.78101 18.3429C5.78101 18.6361 5.79258 18.9258 5.81339 19.2134L3.59339 21.1317C3.19169 21.4783 2.92458 21.951 2.83752 22.4694C2.75046 22.9878 2.84881 23.5198 3.11586 23.975L5.84461 28.6207C6.11155 29.0764 6.53113 29.4269 7.03174 29.6124C7.53236 29.7979 8.08295 29.8069 8.58955 29.6378L11.4039 28.7014C11.8887 29.0229 12.3956 29.3111 12.9209 29.564L13.5025 32.4255C13.6073 32.9409 13.8906 33.4047 14.3042 33.7379C14.7179 34.0711 15.2362 34.2531 15.771 34.2529H20.8123V31.98H15.771L14.9501 27.9457C13.8144 27.5311 12.7602 26.9267 11.834 26.1592L7.84839 27.4843L5.11964 22.8386L8.27042 20.1168C8.05486 18.9416 8.05212 17.7382 8.26233 16.5621L5.11964 13.8471L7.84839 9.20143L11.8109 10.5197C12.7437 9.75115 13.8061 9.14887 14.9501 8.74004L15.771 4.70572H21.2285L22.0495 8.74004C23.1851 9.15473 24.2393 9.75911 25.1655 10.5265L29.1511 9.20143L31.8799 13.8471L28.6447 16.6337L30.1686 18.3429L33.4061 15.5541C33.8078 15.2074 34.0749 14.7347 34.162 14.2163C34.2491 13.6979 34.1507 13.1659 33.8837 12.7107Z" fill="url(#paint1_linear_469_320)"/>
<path d="M26.5938 29.9117L23.5991 26.9684L21.9688 28.5707L26.5938 33.1164L34.6875 25.1614L33.0572 23.5591L26.5938 29.9117Z" fill="url(#paint2_linear_469_320)"/>
<defs>
<linearGradient id="paint0_linear_469_320" x1="23.3032" y1="11.3796" x2="16.6987" y2="28.041" gradientUnits="userSpaceOnUse">
<stop stop-color="#9907CC"/>
<stop offset="1" stop-color="#9907CC" stop-opacity="0.1"/>
</linearGradient>
<linearGradient id="paint1_linear_469_320" x1="29.3642" y1="2.09536" x2="13.6056" y2="40.6359" gradientUnits="userSpaceOnUse">
<stop stop-color="#9907CC"/>
<stop offset="1" stop-color="#9907CC" stop-opacity="0.1"/>
</linearGradient>
<linearGradient id="paint2_linear_469_320" x1="32.7308" y1="23.4577" x2="28.9805" y2="35.8324" gradientUnits="userSpaceOnUse">
<stop stop-color="#9907CC"/>
<stop offset="1" stop-color="#9907CC" stop-opacity="0.1"/>
</linearGradient>
</defs>
</svg>
